<?xml version="1.0" encoding="UTF-8" standalone="no"?>
<svg
   xmlns:dc="http://purl.org/dc/elements/1.1/"
   xmlns:cc="http://creativecommons.org/ns#"
   xmlns:rdf="http://www.w3.org/1999/02/22-rdf-syntax-ns#"
   xmlns:svg="http://www.w3.org/2000/svg"
   xmlns="http://www.w3.org/2000/svg"
   xmlns:sodipodi="http://sodipodi.sourceforge.net/DTD/sodipodi-0.dtd"
   xmlns:inkscape="http://www.inkscape.org/namespaces/inkscape"
   version="1.1"
   id="svg2"
   xml:space="preserve"
   width="6666.6665"
   height="6666.6665"
   viewBox="0 0 6666.6665 6666.6665"
   sodipodi:docname="logo-bike.eps"><metadata
     id="metadata8"><rdf:RDF><cc:Work
         rdf:about=""><dc:format>image/svg+xml</dc:format><dc:type
           rdf:resource="http://purl.org/dc/dcmitype/StillImage" /></cc:Work></rdf:RDF></metadata><defs
     id="defs6" /><sodipodi:namedview
     pagecolor="#ffffff"
     bordercolor="#666666"
     borderopacity="1"
     objecttolerance="10"
     gridtolerance="10"
     guidetolerance="10"
     inkscape:pageopacity="0"
     inkscape:pageshadow="2"
     inkscape:window-width="640"
     inkscape:window-height="480"
     id="namedview4" /><g
     id="g10"
     inkscape:groupmode="layer"
     inkscape:label="ink_ext_XXXXXX"
     transform="matrix(1.3333333,0,0,-1.3333333,0,6666.6667)"><g
       id="g12"
       transform="scale(0.1)"><path
         d="m 43077,23218 c -61.8,-635 2136.9,-1598.1 2015.2,-2213.6 -4,-20 -10.2,-39.4 -18.7,-58.2 -256.2,-570.3 -2511.2,-638.4 -2687.6,-1220.6 -0.3,-0.8 -0.5,-1.7 -0.7,-2.5 -770.5,-62.8 -1483.9,-539.5 -1806.9,-1296.2 l -467.8,-1094.5 c -464,-1086.5 45.4,-2355.1 1131.7,-2819.2 l 739.5,-315.9 c 100.1,-243 136.9,-447.9 49.7,-578.1 -352.3,-526.4 -2589,346.5 -2990,-141.5 -133.1,-161.9 -80.5,-492.3 33,-878 229.4,-779 707.5,-1783.6 408.5,-2082.6 -447,-447.1 -2471.7,843.2 -2960.6,441.5 -488.1,-401 384.8,-2637.7 -141.5,-2990 -524.3,-351.1 -2259.2,1308.2 -2818.1,1008.9 -555.6,-297.6 -136,-2661.8 -722.4,-2904.9 -581.5,-241.1 -1957.4,1725.8 -2565.9,1541.5 C 29673,7431.9 29620.2,5031.4 28995.6,4907.8 28380.1,4786.1 27417,6984.8 26782,6923 c -623.2,-60.6 -1142.8,-2404.9 -1782,-2404.9 -639.2,0 -1158.8,2344.3 -1782,2404.9 -635,61.8 -1598.1,-2136.9 -2213.6,-2015.2 -624.6,123.6 -677.4,2524.1 -1278.8,2706.3 -608.5,184.3 -1984.5,-1782.6 -2565.9,-1541.5 -586.4,243.2 -166.8,2607.3 -722.4,2904.9 -558.9,299.4 -2293.8,-1360 -2818.1,-1008.9 -526.4,352.3 346.5,2589 -141.5,2990 -488.9,401.8 -2513.6,-888.6 -2960.6,-441.5 -447.1,447 843.2,2471.7 441.5,2960.6 -374.9,456.3 -2354.4,-277 -2898.3,55.9 -37.9,23 -68.8,51.3 -91.7,85.6 -127.6,190.6 10.4,541.2 223.5,937.1 l 786.1,255.4 c 205.4,66.9 384.7,197 511.6,371.8 l 708.4,975.1 c 127.1,174.9 195.6,385.4 195.6,601.5 v 636.3 c -368.9,707.1 -687.9,1444.3 -952.4,2207.1 -122.3,143.9 -282.7,251.6 -463.2,310.3 l -1146.3,372.5 c -205.5,66.7 -427.1,66.7 -632.5,0 l -324.8,-105.5 c -465.7,145.8 -1051.6,262.3 -1463.2,423 -273.8,106.9 -470.5,233.2 -503.6,400.6 -121.7,615.5 2077,1578.6 2015.2,2213.6 -60.6,623.2 -2404.9,1142.8 -2404.9,1782 0,639.2 2344.3,1158.8 2404.9,1782 61.8,635 -2136.9,1598.1 -2015.2,2213.6 123.6,624.6 2524.1,677.4 2706.3,1278.8 184.3,608.5 -1782.6,1984.5 -1541.5,2565.9 243.2,586.4 2607.3,166.8 2904.9,722.4 299.4,558.9 -1360,2293.8 -1008.9,2818.1 352.3,526.4 2589,-346.5 2990,141.5 401.8,488.9 -888.6,2513.6 -441.5,2960.6 447,447.1 2471.7,-843.2 2960.6,-441.5 488.1,401 -384.8,2637.7 141.5,2990 524.3,351.1 2259.2,-1308.2 2818.1,-1008.9 555.6,297.6 136,2661.8 722.4,2904.9 581.5,241.1 1957.4,-1725.8 2565.9,-1541.5 601.4,182.2 654.2,2582.7 1278.8,2706.3 615.5,121.7 1578.6,-2077 2213.6,-2015.2 623.2,60.6 1142.8,2404.9 1782,2404.9 639.2,0 1158.8,-2344.3 1782,-2404.9 635,-61.8 1598.1,2136.9 2213.6,2015.2 624.6,-123.6 677.4,-2524.1 1278.8,-2706.3 608.5,-184.3 1984.5,1782.6 2565.9,1541.5 586.4,-243.2 166.8,-2607.3 722.4,-2904.9 558.9,-299.4 2293.8,1360 2818.1,1008.9 526.4,-352.3 -346.5,-2589 141.5,-2990 488.9,-401.8 2513.6,888.6 2960.6,441.5 447.1,-447 -843.2,-2471.7 -441.5,-2960.6 401,-488.1 2637.7,384.8 2990,-141.5 351.1,-524.3 -1308.2,-2259.2 -1008.9,-2818.1 297.6,-555.6 2661.8,-136 2904.9,-722.4 241.1,-581.5 -1725.8,-1957.4 -1541.5,-2565.9 182.2,-601.4 2582.7,-654.2 2706.3,-1278.8 121.7,-615.5 -2077,-1578.6 -2015.2,-2213.6 60.6,-623.2 2404.9,-1142.8 2404.9,-1782 0,-639.2 -2344.3,-1158.8 -2404.9,-1782"
         style="fill:#100f0d;fill-opacity:1;fill-rule:nonzero;stroke:none"
         id="path14" /><path
         d="m 41463.5,25000 c 0,-815.3 -59.3,-1616.8 -173.7,-2400.3 -479.6,-3282.8 -1927.9,-6251.2 -4045.5,-8605.5 C 34230.6,10643.5 29861.4,8536.5 25000,8536.5 c -5224,0 -9879.7,2433.1 -12895.7,6227.9 -649.9,817.7 -1223.6,1698.6 -1710.5,2632 -368.9,707.1 -687.9,1444.3 -952.4,2207.1 -148.9,429.3 -280.6,866.7 -394.1,1311.4 -333.5,1306.2 -510.8,2675 -510.8,4085.1 0,9092.5 7371,16463.5 16463.5,16463.5 9092.5,0 16463.5,-7371 16463.5,-16463.5"
         style="fill:#ffffff;fill-opacity:1;fill-rule:nonzero;stroke:none"
         id="path16" /><path
         d="m 7515.62,19936.3 c -65.6,0 -130.42,-10.2 -192.68,-30.4 l -324.78,-105.5 -821.42,-267 c -126.04,-41 -233.77,-119.3 -311.55,-226.4 l -708.59,-975.2 c -77.94,-107.2 -119.1,-233.9 -119.1,-366.4 v -1205.3 c 0,-132.5 41.18,-259.2 119.08,-366.4 l 708.52,-975.1 c 77.82,-107.2 185.61,-185.5 311.82,-226.5 l 1146.07,-372.4 c 62.21,-20.2 127.03,-30.4 192.63,-30.4 65.6,0 130.47,10.2 192.79,30.5 l 1146.18,372.3 c 126.01,41.1 233.82,119.4 311.52,226.4 l 708.47,975.2 c 78.01,107.3 119.22,234 119.22,366.4 v 1205.3 c 0,132.4 -41.19,259.1 -119.12,366.3 l -708.5,975.2 c -9.41,13 -19.16,25.4 -28.98,36.9 -75.28,88.5 -172.83,153.9 -282.7,189.6 l -1146.22,372.5 c -62.19,20.2 -127.06,30.4 -192.66,30.4 z M 41254.2,11725.7 c -818.7,0 -1608.2,171.7 -2346.6,510.4 -753,345.2 -1434,864.1 -1969.4,1500.6 -166.6,198.2 -320.1,408.6 -458.1,627.7 h -25928 c -655.57,-663.5 -1513.81,-1097 -2436.01,-1226.9 -197.24,-27.9 -399.37,-42.1 -600.49,-42.1 -570.21,0 -1123.99,110.7 -1645.96,329.1 -503.97,210.9 -957.66,513 -1348.48,897.9 -390.52,384.7 -699.33,833.4 -917.86,1333.8 -226.07,517.6 -345.33,1068.3 -354.45,1636.8 -11.76,732.6 167.29,1459.6 517.8,2102.3 339.2,622 832.32,1155.7 1426.05,1543.4 680.38,444.5 1469.38,683.6 2281.62,691.3 13.82,0.1 27.57,0.2 41.38,0.2 586.97,0 1155.65,-117.1 1690.25,-348.1 499.2,-215.5 961.25,-532 1346.05,-920.9 h 25928.1 c 477.6,758.7 1132.1,1396.8 1904.8,1854.6 865.7,513 1857.9,784.1 2869.3,784.1 13.3,0 26.7,0 39.9,-0.2 784.5,-5.4 1543.1,-169.1 2254.5,-486.5 687.9,-306.8 1299,-741.9 1816.5,-1293.2 669.6,-713.3 1143.5,-1590.7 1370.7,-2537.2 40.9,-170.4 2.4,-346.7 -105.6,-483.7 -108.7,-137.7 -270.9,-216.8 -445.1,-216.8 0,0 0,0 -0.1,0 -76.6,0.1 -151.7,15.5 -222.9,45.9 l -2721.8,1162.4 c -216.9,92.7 -445.8,139.7 -680.4,139.7 -47.2,0 -95,-2 -142,-5.9 -313.8,-25.5 -615.9,-134.9 -873.8,-316.3 -264.4,-186 -471.2,-441.3 -597.9,-738.2 l -467.9,-1094.7 c -182.4,-427.1 -186.7,-901.9 -12.1,-1336.8 174.6,-434.9 506,-774.9 933.1,-957.4 l 2873.1,-1227.3 c 192,-81.9 323.1,-262.1 342.1,-470.2 18.9,-207.8 -77.3,-408.4 -251.1,-523.6 -922.6,-611.2 -1997.7,-934.2 -3109.2,-934.2"
         style="fill:#100f0d;fill-opacity:1;fill-rule:nonzero;stroke:none"
         id="path18" /><path
         d="m 7515.62,15189.3 c -23.58,0 -46.85,3.7 -69.14,10.9 l -1146.2,372.4 c -44.29,14.4 -84.01,43.2 -111.39,80.9 l -708.69,975.4 c -27.95,38.4 -42.7,83.8 -42.7,131.2 v 1205.3 c 0,47.5 14.71,92.8 42.53,131 l 708.67,975.4 c 27.59,38 67.2,66.7 111.72,81.2 l 821.46,267 324.66,105.4 c 22.25,7.3 45.51,10.9 69.08,10.9 23.59,0 46.91,-3.7 69.3,-10.9 L 8730.96,19153 c 39.23,-12.8 74.16,-36.2 100.85,-67.6 l 0.55,-0.6 0.56,-0.7 c 3.09,-3.6 6.33,-7.7 9.63,-12.3 l 708.42,-975.1 c 28.09,-38.6 42.83,-83.9 42.83,-131.3 v -1205.3 c 0,-47.3 -14.79,-92.7 -42.76,-131.2 l -708.47,-975.2 c -27.54,-37.9 -67.3,-66.7 -112.13,-81.3 l -785.54,-255.2 -360.14,-117 c -22.21,-7.2 -45.53,-10.9 -69.14,-10.9 z m 33738.58,8210.6 c -549.4,0 -1094.1,-74 -1619.1,-219.8 -509.2,-141.5 -998.4,-350.2 -1454.1,-620.2 -763,-452.1 -1418.4,-1068.4 -1916.9,-1798.7 H 10714.8 c -151.6,142.8 -312.7,275.5 -481.7,396.6 -271.02,194.4 -563.33,359.8 -868.76,491.6 -584.72,252.6 -1206.77,380.8 -1848.63,380.8 -15.13,0 -30.2,-0.1 -45.34,-0.2 -888.64,-8.4 -1751.98,-270 -2496.54,-756.5 -648.71,-423.6 -1187.63,-1006.9 -1558.36,-1686.7 -188.61,-345.9 -332.64,-714.3 -428.08,-1095 -98.43,-392.7 -145.03,-798.2 -138.49,-1205.2 9.98,-621.7 140.46,-1224.1 387.84,-1790.5 239.02,-547.3 576.72,-1038.1 1003.73,-1458.7 427.33,-420.9 923.52,-751.2 1474.78,-981.9 571.13,-238.9 1176.85,-360.1 1800.35,-360.1 219.6,0 440.4,15.5 656.28,46 v 0 c 0.2,0 0.39,0.1 0.56,0.1 543.12,76.6 1063.6,246.8 1546.92,506.1 363.14,194.8 696.84,435.1 995.74,716.8 h 25549 c 114.5,-167.7 237.4,-329.9 367.9,-485.1 285.8,-339.7 609.4,-648.4 962,-917.6 355.6,-271.5 741.5,-503.4 1147.1,-689.2 386.3,-177.3 792.8,-313.6 1208,-405.2 426.1,-93.9 865.2,-141.6 1305.1,-141.6 1190.3,0 2341.9,346 3330,1000.7 296.7,196.6 460.9,538.9 428.6,893.4 -32.3,354.7 -255.8,662 -583.3,801.8 l -2133.5,911.4 -739.5,315.9 c -328.9,140.5 -584.3,402.8 -719.1,738.6 -134.8,335.7 -131.7,701.8 8.8,1030.7 l 467.7,1094.3 c 97.7,228.8 256.8,425.2 460.3,568.4 199.6,140.4 433.4,225.1 676,244.8 36.6,3 73.4,4.6 109.7,4.6 180.3,0 356.4,-36.2 523.2,-107.5 l 2721.8,-1162.4 c 121.3,-51.8 249.2,-78 380.2,-78 148.8,0 298,35.2 431.4,102 126.7,63.4 240,155.8 327.8,267 184.3,233.9 250.2,534.5 180.5,824.7 -243.4,1014 -751,1953.7 -1468,2717.6 -272.9,290.7 -575.7,555.4 -900,786.8 -327.3,233.4 -679,434.6 -1045.2,598 -373.2,166.5 -764.7,295.1 -1163.8,382.2 -408.1,89.2 -828.4,135.9 -1249.3,139 -16.7,0.2 -31.9,0.2 -44.3,0.2 z M 7515.61,14389.3 c 106.76,0 213.54,16.6 316.29,50 l 360.2,117 786.1,255.4 c 205.4,66.9 384.7,197 511.6,371.8 l 708.4,975.1 c 127.1,174.9 195.6,385.4 195.6,601.5 v 1205.3 c 0,216.2 -68.5,426.7 -195.6,601.5 l -708.4,975.1 c -15.4,21.2 -31.5,41.7 -48.4,61.5 -122.3,143.9 -282.7,251.6 -463.2,310.3 l -1146.3,372.5 c -102.75,33.4 -209.53,50 -316.29,50 -106.76,0 -213.51,-16.6 -316.21,-50 l -324.8,-105.5 -821.5,-267 c -205.5,-66.8 -384.7,-197 -511.6,-371.8 L 4833,18566.9 c -127.1,-174.8 -195.5,-385.3 -195.5,-601.5 v -1205.3 c 0,-216.1 68.4,-426.6 195.5,-601.5 l 708.5,-975.1 c 126.9,-174.8 306.1,-304.9 511.6,-371.8 l 1146.3,-372.4 c 102.7,-33.4 209.45,-50 316.21,-50 m 33738.59,8210.6 c 11.9,0 23.8,0 35.6,-0.2 1491.9,-9.9 2835.8,-643.7 3783.7,-1653.5 611.3,-651.3 1057.9,-1459.1 1273.4,-2356.8 26.5,-110.4 -59.8,-207 -161.8,-207 -21.6,0 -43.9,4.3 -66,13.7 l -2721.7,1162.4 c -272.9,116.6 -557.3,171.8 -837.5,171.8 -58.5,0 -116.8,-2.4 -174.7,-7.2 -770.5,-62.8 -1483.9,-539.5 -1806.9,-1296.2 l -467.8,-1094.5 c -464,-1086.5 45.4,-2355.1 1131.7,-2819.2 l 739.5,-315.9 2133.6,-911.4 c 122,-52.1 137.7,-219.3 27.1,-292.6 -827.8,-548.4 -1820.8,-867.6 -2888.2,-867.6 -777.9,0 -1516.2,169.6 -2179.8,474 -709.5,325.2 -1333.7,804.3 -1830.1,1394.5 -201.3,239.4 -381.6,497.1 -538,770.2 H 10380.1 c -592.4,-652.7 -1404.7,-1101.9 -2319.8,-1230.8 -178,-25.2 -359.8,-38.2 -544.7,-38.2 -2114.7,0 -3833,1697.3 -3866.8,3804 -22.1,1376 685.3,2600.9 1762.6,3304.4 596,389.4 1305.2,619 2066.7,626.2 12.56,0.1 25.06,0.2 37.6,0.2 544.13,0 1061.92,-112.4 1531.6,-315.3 510.6,-220.4 964.2,-547.7 1332.8,-953.7 h 26326.2 c 902.8,1576.3 2601.2,2638.7 4547.9,2638.7"
         style="fill:#ffffff;fill-opacity:1;fill-rule:nonzero;stroke:none"
         id="path20" /><path
         d="m 16182.7,25817.8 c 0,-220.8 -179.6,-400.4 -400.5,-400.4 -220.8,0 -400.5,179.6 -400.5,400.4 0,220.9 179.7,400.5 400.5,400.5 220.9,0 400.5,-179.6 400.5,-400.5 z m -4297.4,0 c 0,526.3 103,1036.6 306.1,1516.8 196.3,464 477.3,880.8 835.3,1238.8 358,358 774.8,639 1238.8,835.2 480.2,203.1 990.5,306.1 1516.7,306.1 370.6,0 733.3,-51.1 1083.2,-152.3 l -1287.9,-2728.7 c -473.6,-95.3 -831.5,-514.6 -831.5,-1015.9 0,-571.3 464.9,-1036.2 1036.2,-1036.2 571.4,0 1036.2,464.9 1036.2,1036.2 0,407.3 -236.1,760.3 -578.7,929.6 l 1221.6,2588.2 c 399.2,-190.7 760.7,-446.5 1076.4,-762.2 358,-358 639.1,-774.8 835.3,-1238.8 203.1,-480.2 306.1,-990.5 306.1,-1516.8 0,-526.2 -103,-1036.5 -306.1,-1516.7 -196.2,-464 -477.3,-880.8 -835.3,-1238.8 -357.9,-358 -774.7,-639 -1238.7,-835.2 -480.3,-203.2 -990.6,-306.2 -1516.8,-306.2 -526.2,0 -1036.5,103 -1516.7,306.2 -464,196.2 -880.8,477.2 -1238.8,835.2 -358,358 -639,774.8 -835.3,1238.8 -203.1,480.2 -306.1,990.5 -306.1,1516.7 z m 7951.2,6232 9361,-1085.5 -1901.8,-4081.1 z m 9848.7,-6232 c 0,-102.9 3.5,-205.3 10.2,-307.2 l -1403.9,29 c 29.8,89.5 46,185.2 46,284.6 0,98.9 -16.1,194.1 -45.6,283.2 l 1404.1,26.2 c -7.1,-104.6 -10.8,-209.9 -10.8,-315.8 z m 754.2,-958.4 3751,-77.4 c 0.7,0 1.5,0 2.3,0 l 12.2,-0.3 c 2.2,0 4.4,-0.1 6.7,-0.1 0.7,0 1.3,0.1 2.1,0.1 1.3,0 2.7,-0.1 4.1,-0.1 571.4,0 1036.2,464.9 1036.2,1036.2 0,519.8 -384.7,951.4 -884.3,1025.1 l -2210.5,2284.8 c 172.3,107.3 353.2,201.1 541.8,280.9 480.3,203.1 990.6,306.1 1516.8,306.1 526.2,0 1036.5,-103 1516.7,-306.1 464,-196.2 880.8,-477.2 1238.8,-835.2 358,-358 639,-774.8 835.3,-1238.8 203.1,-480.2 306.1,-990.5 306.1,-1516.8 0,-526.2 -103,-1036.5 -306.1,-1516.7 -196.3,-464 -477.3,-880.8 -835.3,-1238.8 -358,-358 -774.8,-639 -1238.8,-835.2 -480.2,-203.2 -990.5,-306.2 -1516.7,-306.2 -526.2,0 -1036.5,103 -1516.8,306.2 -464,196.2 -880.7,477.2 -1238.7,835.2 -358,358 -639,774.8 -835.3,1238.8 -77,182 -139.6,368.4 -187.6,558.3 z m 4178.9,958.4 c 0,-220.8 -179.7,-400.4 -400.5,-400.4 -220.8,0 -400.5,179.6 -400.5,400.4 0,213.8 168.2,388.9 379.2,400 l 25.3,0.4 c 219,-2.1 396.5,-180.9 396.5,-400.4 z m -2973.3,2927.1 1842,-1903.9 -3044.9,-54.1 c 47.7,186.2 109.3,369 184.9,547.7 196.3,464 477.3,880.8 835.3,1238.8 59.3,59.3 120.2,116.4 182.7,171.5 z m -1310.6,-2599.3 2920.3,54.6 c -47.2,-118.4 -73.1,-247.4 -73.1,-382.4 0,-134.3 25.7,-262.7 72.4,-380.6 l -2920.2,60.2 c -8.5,106.1 -12.9,212.9 -12.9,320.4 0,110 4.6,219.3 13.5,327.8 z m -3166.6,-321.4 c 0,147.2 119.7,267 267,267 147.2,0 267,-119.8 267,-267 0,-147.2 -119.8,-267 -267,-267 -147.3,0 -267,119.8 -267,267 z m 4034.8,3378 c -64.8,-57.8 -128.1,-117.5 -189.8,-179.3 -416.2,-416.2 -743,-900.9 -971.3,-1440.7 -110.8,-261.9 -196,-531.5 -255.3,-807 l -1854.8,-32.9 1837,3942.2 z m -19953,-3384.4 c 0,-611.7 119.9,-1205.3 356.3,-1764.4 228.3,-539.7 555.1,-1024.4 971.3,-1440.6 416.1,-416.2 900.8,-742.9 1440.6,-971.2 559,-236.5 1152.7,-356.4 1764.4,-356.4 611.8,0 1205.4,119.9 1764.4,356.4 539.8,228.3 1024.5,555 1440.7,971.2 416.1,416.2 742.9,900.9 971.2,1440.6 236.4,559.1 356.3,1152.7 356.3,1764.4 0,611.8 -119.9,1205.4 -356.3,1764.4 -228.3,539.8 -555.1,1024.5 -971.2,1440.7 -367.8,367.8 -789.2,665.7 -1254.7,887.6 l 1004.2,2127.7 8056.1,-5580 c -161.2,-163.1 -260.8,-387.1 -260.8,-634 0,-495.4 401.1,-898.8 895.6,-902.6 0.2,0 0.3,0 0.5,0 l 2355.4,-48.6 c 59.4,-279.9 145.4,-553.6 257.9,-819.6 228.3,-539.7 555.1,-1024.4 971.3,-1440.6 416.1,-416.2 900.8,-742.9 1440.6,-971.2 559,-236.5 1152.6,-356.4 1764.4,-356.4 611.7,0 1205.4,119.9 1764.4,356.4 539.8,228.3 1024.5,555 1440.6,971.2 416.2,416.2 743,900.9 971.3,1440.6 236.4,559.1 356.3,1152.7 356.3,1764.4 0,611.8 -119.9,1205.4 -356.3,1764.4 -228.3,539.8 -555.1,1024.5 -971.3,1440.7 -416.1,416.2 -900.8,742.9 -1440.6,971.2 -559,236.5 -1152.7,356.4 -1764.4,356.4 -611.8,0 -1205.4,-119.9 -1764.4,-356.4 -261.8,-110.7 -510.5,-244.6 -744.8,-400.6 l -1652.6,1708.1 1058.6,2271.9 h 1240.6 c 175.5,0 317.8,142.3 317.8,317.9 0,175.5 -142.3,317.8 -317.8,317.8 h -1442.3 c -2.1,0 -4.1,0 -6.1,0 h -1450.5 c -175.5,0 -317.8,-142.3 -317.8,-317.8 0,-175.6 142.3,-317.9 317.8,-317.9 h 957 l -932.9,-2002 -10395,1205.4 2127.2,4507 c 66.6,141.2 20.8,309.9 -108.1,398 l -2008.9,1373.2 c -144.9,99 -342.7,61.9 -441.7,-83.1 -99.1,-144.9 -61.9,-342.7 83,-441.7 L 20522,37310.1 17139.7,30143.7 c -437.2,137.3 -892.1,206.8 -1357.5,206.8 -611.7,0 -1205.4,-119.9 -1764.4,-356.4 -539.8,-228.3 -1024.5,-555 -1440.6,-971.2 -416.2,-416.2 -743,-900.9 -971.3,-1440.7 -236.4,-559 -356.3,-1152.6 -356.3,-1764.4"
         style="fill:#100f0d;fill-opacity:1;fill-rule:nonzero;stroke:none"
         id="path22" /></g></g></svg>
